<mxfile host="app.diagrams.net" modified="2023-05-01T18:41:50.415Z" agent="Mozilla/5.0 (Windows NT 10.0; Win64; x64) AppleWebKit/537.36 (KHTML, like Gecko) Chrome/112.0.0.0 Safari/537.36" etag="YrEjtUKhptuf6kWGoagk" version="21.2.3" type="device">
  <diagram name="Page-1" id="FpFqAJ-dff2ywzQN5wYw">
    <mxGraphModel dx="3183" dy="2471" grid="1" gridSize="10" guides="1" tooltips="1" connect="1" arrows="1" fold="1" page="1" pageScale="1" pageWidth="850" pageHeight="1100" math="0" shadow="0">
      <root>
        <mxCell id="0" />
        <mxCell id="1" parent="0" />
        <mxCell id="D_m2Uv7tLHT4tkGTXmzc-1" value="Customer" style="shape=umlActor;verticalLabelPosition=bottom;verticalAlign=top;html=1;outlineConnect=0;" parent="1" vertex="1">
          <mxGeometry x="392.2" y="257" width="50" height="120" as="geometry" />
        </mxCell>
        <mxCell id="D_m2Uv7tLHT4tkGTXmzc-2" value="1. 0&lt;br&gt;Buy" style="ellipse;whiteSpace=wrap;html=1;aspect=fixed;fillColor=#d5e8d4;strokeColor=#82b366;" parent="1" vertex="1">
          <mxGeometry x="885" y="157" width="80" height="80" as="geometry" />
        </mxCell>
        <mxCell id="D_m2Uv7tLHT4tkGTXmzc-3" value="2. 0&lt;br&gt;sell" style="ellipse;whiteSpace=wrap;html=1;aspect=fixed;fillColor=#d5e8d4;strokeColor=#82b366;" parent="1" vertex="1">
          <mxGeometry x="886" y="277" width="80" height="80" as="geometry" />
        </mxCell>
        <mxCell id="D_m2Uv7tLHT4tkGTXmzc-4" value="3. 0&lt;br&gt;Predict" style="ellipse;whiteSpace=wrap;html=1;aspect=fixed;fillColor=#d5e8d4;strokeColor=#7add40;" parent="1" vertex="1">
          <mxGeometry x="885" y="397" width="80" height="80" as="geometry" />
        </mxCell>
        <mxCell id="D_m2Uv7tLHT4tkGTXmzc-6" value="" style="endArrow=classic;html=1;rounded=0;" parent="1" edge="1">
          <mxGeometry width="50" height="50" relative="1" as="geometry">
            <mxPoint x="668" y="300" as="sourcePoint" />
            <mxPoint x="887.2229123599975" y="211.8885438200013" as="targetPoint" />
          </mxGeometry>
        </mxCell>
        <mxCell id="D_m2Uv7tLHT4tkGTXmzc-8" value="Select car condition&amp;nbsp;" style="text;html=1;strokeColor=none;fillColor=none;align=center;verticalAlign=middle;whiteSpace=wrap;rounded=0;rotation=-30;" parent="1" vertex="1">
          <mxGeometry x="698" y="210" width="120" height="10" as="geometry" />
        </mxCell>
        <mxCell id="D_m2Uv7tLHT4tkGTXmzc-10" value="Select car" style="text;html=1;strokeColor=none;fillColor=none;align=center;verticalAlign=middle;whiteSpace=wrap;rounded=0;rotation=-15;" parent="1" vertex="1">
          <mxGeometry x="753.6800000000001" y="229" width="80" height="10" as="geometry" />
        </mxCell>
        <mxCell id="D_m2Uv7tLHT4tkGTXmzc-11" value="Car info" style="text;html=1;strokeColor=none;fillColor=none;align=center;verticalAlign=middle;whiteSpace=wrap;rounded=0;rotation=-15;" parent="1" vertex="1">
          <mxGeometry x="777.36" y="269" width="50.32" height="10" as="geometry" />
        </mxCell>
        <mxCell id="D_m2Uv7tLHT4tkGTXmzc-12" value="" style="endArrow=classic;html=1;curved=1;exitX=0.136;exitY=0.907;exitDx=0;exitDy=0;exitPerimeter=0;" parent="1" source="D_m2Uv7tLHT4tkGTXmzc-2" edge="1">
          <mxGeometry width="50" height="50" relative="1" as="geometry">
            <mxPoint x="899" y="225" as="sourcePoint" />
            <mxPoint x="678" y="320" as="targetPoint" />
            <Array as="points">
              <mxPoint x="855" y="287" />
            </Array>
          </mxGeometry>
        </mxCell>
        <mxCell id="D_m2Uv7tLHT4tkGTXmzc-13" value="" style="endArrow=classic;html=1;curved=1;" parent="1" edge="1">
          <mxGeometry width="50" height="50" relative="1" as="geometry">
            <mxPoint x="650" y="290" as="sourcePoint" />
            <mxPoint x="876" y="195" as="targetPoint" />
            <Array as="points">
              <mxPoint x="805" y="197" />
            </Array>
          </mxGeometry>
        </mxCell>
        <mxCell id="D_m2Uv7tLHT4tkGTXmzc-16" value="" style="endArrow=classic;html=1;curved=1;" parent="1" edge="1">
          <mxGeometry width="50" height="50" relative="1" as="geometry">
            <mxPoint x="688" y="340" as="sourcePoint" />
            <mxPoint x="875" y="324" as="targetPoint" />
            <Array as="points">
              <mxPoint x="815" y="304" />
            </Array>
          </mxGeometry>
        </mxCell>
        <mxCell id="D_m2Uv7tLHT4tkGTXmzc-17" value="" style="endArrow=classic;html=1;curved=1;" parent="1" edge="1">
          <mxGeometry width="50" height="50" relative="1" as="geometry">
            <mxPoint x="886" y="357" as="sourcePoint" />
            <mxPoint x="698" y="360" as="targetPoint" />
            <Array as="points">
              <mxPoint x="836" y="377" />
            </Array>
          </mxGeometry>
        </mxCell>
        <mxCell id="D_m2Uv7tLHT4tkGTXmzc-20" value="add Car info" style="text;html=1;strokeColor=none;fillColor=none;align=center;verticalAlign=middle;whiteSpace=wrap;rounded=0;rotation=0;" parent="1" vertex="1">
          <mxGeometry x="781.6800000000001" y="300" width="70" height="10" as="geometry" />
        </mxCell>
        <mxCell id="D_m2Uv7tLHT4tkGTXmzc-21" value="added successfuly" style="text;html=1;strokeColor=none;fillColor=none;align=center;verticalAlign=middle;whiteSpace=wrap;rounded=0;rotation=0;" parent="1" vertex="1">
          <mxGeometry x="754.6800000000001" y="342" width="100.52" height="10" as="geometry" />
        </mxCell>
        <mxCell id="D_m2Uv7tLHT4tkGTXmzc-22" value="" style="endArrow=classic;html=1;curved=1;" parent="1" edge="1">
          <mxGeometry width="50" height="50" relative="1" as="geometry">
            <mxPoint x="698" y="387" as="sourcePoint" />
            <mxPoint x="884.6800000000001" y="427" as="targetPoint" />
            <Array as="points">
              <mxPoint x="835" y="387" />
            </Array>
          </mxGeometry>
        </mxCell>
        <mxCell id="D_m2Uv7tLHT4tkGTXmzc-23" value="" style="endArrow=classic;html=1;curved=1;" parent="1" edge="1">
          <mxGeometry width="50" height="50" relative="1" as="geometry">
            <mxPoint x="875" y="457" as="sourcePoint" />
            <mxPoint x="688" y="417" as="targetPoint" />
            <Array as="points">
              <mxPoint x="827.2" y="467" />
            </Array>
          </mxGeometry>
        </mxCell>
        <mxCell id="D_m2Uv7tLHT4tkGTXmzc-24" value="Car model year" style="text;html=1;strokeColor=none;fillColor=none;align=center;verticalAlign=middle;whiteSpace=wrap;rounded=0;rotation=15;" parent="1" vertex="1">
          <mxGeometry x="789.42" y="378.98" width="85.32" height="10" as="geometry" />
        </mxCell>
        <mxCell id="D_m2Uv7tLHT4tkGTXmzc-25" value="Min,Max,average price of car entered" style="text;html=1;strokeColor=none;fillColor=none;align=center;verticalAlign=middle;whiteSpace=wrap;rounded=0;rotation=15;" parent="1" vertex="1">
          <mxGeometry x="755.16" y="419.04" width="119.57" height="10" as="geometry" />
        </mxCell>
        <mxCell id="D_m2Uv7tLHT4tkGTXmzc-39" value="5. 0&lt;br&gt;Maintenance" style="ellipse;whiteSpace=wrap;html=1;aspect=fixed;fillColor=#d5e8d4;strokeColor=#7add40;" parent="1" vertex="1">
          <mxGeometry x="1" y="238" width="80" height="80" as="geometry" />
        </mxCell>
        <mxCell id="D_m2Uv7tLHT4tkGTXmzc-40" value="" style="endArrow=classic;html=1;curved=1;exitX=1;exitY=0.283;exitDx=0;exitDy=0;exitPerimeter=0;" parent="1" edge="1">
          <mxGeometry width="50" height="50" relative="1" as="geometry">
            <mxPoint x="81" y="268.6400000000001" as="sourcePoint" />
            <mxPoint x="340" y="280" as="targetPoint" />
            <Array as="points">
              <mxPoint x="151" y="256" />
            </Array>
          </mxGeometry>
        </mxCell>
        <mxCell id="D_m2Uv7tLHT4tkGTXmzc-41" value="" style="endArrow=classic;html=1;curved=1;" parent="1" edge="1">
          <mxGeometry width="50" height="50" relative="1" as="geometry">
            <mxPoint x="330" y="349" as="sourcePoint" />
            <mxPoint x="52" y="329" as="targetPoint" />
            <Array as="points">
              <mxPoint x="132" y="379" />
            </Array>
          </mxGeometry>
        </mxCell>
        <mxCell id="D_m2Uv7tLHT4tkGTXmzc-42" value="" style="endArrow=classic;html=1;curved=1;entryX=1;entryY=0.75;entryDx=0;entryDy=0;entryPerimeter=0;" parent="1" target="D_m2Uv7tLHT4tkGTXmzc-39" edge="1">
          <mxGeometry width="50" height="50" relative="1" as="geometry">
            <mxPoint x="330" y="300" as="sourcePoint" />
            <mxPoint x="91" y="299" as="targetPoint" />
            <Array as="points">
              <mxPoint x="141" y="319" />
            </Array>
          </mxGeometry>
        </mxCell>
        <mxCell id="D_m2Uv7tLHT4tkGTXmzc-43" value="" style="endArrow=classic;html=1;curved=1;exitX=0.959;exitY=0.76;exitDx=0;exitDy=0;exitPerimeter=0;" parent="1" edge="1">
          <mxGeometry width="50" height="50" relative="1" as="geometry">
            <mxPoint x="71" y="308.48" as="sourcePoint" />
            <mxPoint x="330" y="320" as="targetPoint" />
            <Array as="points">
              <mxPoint x="121" y="358" />
            </Array>
          </mxGeometry>
        </mxCell>
        <mxCell id="D_m2Uv7tLHT4tkGTXmzc-46" value="Enable location" style="text;html=1;strokeColor=none;fillColor=none;align=center;verticalAlign=middle;whiteSpace=wrap;rounded=0;rotation=0;" parent="1" vertex="1">
          <mxGeometry x="109" y="243" width="75" height="10" as="geometry" />
        </mxCell>
        <mxCell id="D_m2Uv7tLHT4tkGTXmzc-47" value="All nearest maintenance shops" style="text;html=1;strokeColor=none;fillColor=none;align=center;verticalAlign=middle;whiteSpace=wrap;rounded=0;rotation=0;" parent="1" vertex="1">
          <mxGeometry x="103" y="279.5" width="115" height="15" as="geometry" />
        </mxCell>
        <mxCell id="D_m2Uv7tLHT4tkGTXmzc-48" value="View history" style="text;html=1;strokeColor=none;fillColor=none;align=center;verticalAlign=middle;whiteSpace=wrap;rounded=0;rotation=0;" parent="1" vertex="1">
          <mxGeometry x="115" y="316" width="75" height="10" as="geometry" />
        </mxCell>
        <mxCell id="D_m2Uv7tLHT4tkGTXmzc-49" value="Dispaly history" style="text;html=1;strokeColor=none;fillColor=none;align=center;verticalAlign=middle;whiteSpace=wrap;rounded=0;rotation=0;" parent="1" vertex="1">
          <mxGeometry x="109" y="340" width="85" height="10" as="geometry" />
        </mxCell>
        <mxCell id="D_m2Uv7tLHT4tkGTXmzc-27" value="4. 0&lt;br&gt;Rent" style="ellipse;whiteSpace=wrap;html=1;aspect=fixed;fillColor=#d5e8d4;strokeColor=#7add40;" parent="1" vertex="1">
          <mxGeometry x="885" y="520" width="80" height="80" as="geometry" />
        </mxCell>
        <mxCell id="D_m2Uv7tLHT4tkGTXmzc-30" value="" style="endArrow=classic;html=1;curved=1;" parent="1" edge="1">
          <mxGeometry width="50" height="50" relative="1" as="geometry">
            <mxPoint x="878" y="600" as="sourcePoint" />
            <mxPoint x="597.36" y="414.04" as="targetPoint" />
            <Array as="points">
              <mxPoint x="738" y="550" />
              <mxPoint x="607.36" y="455.04" />
            </Array>
          </mxGeometry>
        </mxCell>
        <mxCell id="D_m2Uv7tLHT4tkGTXmzc-32" value="Choose car type" style="text;html=1;strokeColor=none;fillColor=none;align=center;verticalAlign=middle;whiteSpace=wrap;rounded=0;rotation=25;" parent="1" vertex="1">
          <mxGeometry x="776" y="478" width="90" height="10" as="geometry" />
        </mxCell>
        <mxCell id="D_m2Uv7tLHT4tkGTXmzc-33" value="Enter start date&lt;br&gt;&amp;nbsp;and end date" style="text;html=1;strokeColor=none;fillColor=none;align=center;verticalAlign=middle;whiteSpace=wrap;rounded=1;rotation=30;arcSize=0;" parent="1" vertex="1">
          <mxGeometry x="698" y="487" width="120" height="6" as="geometry" />
        </mxCell>
        <mxCell id="D_m2Uv7tLHT4tkGTXmzc-34" value="Available car" style="text;html=1;strokeColor=none;fillColor=none;align=center;verticalAlign=middle;whiteSpace=wrap;rounded=0;rotation=30;" parent="1" vertex="1">
          <mxGeometry x="702" y="526" width="75" height="10" as="geometry" />
        </mxCell>
        <mxCell id="D_m2Uv7tLHT4tkGTXmzc-36" value="" style="endArrow=classic;html=1;curved=1;" parent="1" edge="1">
          <mxGeometry width="50" height="50" relative="1" as="geometry">
            <mxPoint x="618" y="420" as="sourcePoint" />
            <mxPoint x="878" y="550" as="targetPoint" />
            <Array as="points">
              <mxPoint x="675" y="496.5" />
            </Array>
          </mxGeometry>
        </mxCell>
        <mxCell id="D_m2Uv7tLHT4tkGTXmzc-51" value="" style="endArrow=classic;html=1;curved=1;" parent="1" edge="1">
          <mxGeometry width="50" height="50" relative="1" as="geometry">
            <mxPoint x="638" y="410" as="sourcePoint" />
            <mxPoint x="878" y="530" as="targetPoint" />
            <Array as="points">
              <mxPoint x="785" y="477" />
            </Array>
          </mxGeometry>
        </mxCell>
        <mxCell id="D_m2Uv7tLHT4tkGTXmzc-52" value="6. 0&lt;br&gt;Petrol or Gas station" style="ellipse;whiteSpace=wrap;html=1;aspect=fixed;fillColor=#d5e8d4;strokeColor=#7add40;" parent="1" vertex="1">
          <mxGeometry y="357" width="80" height="80" as="geometry" />
        </mxCell>
        <mxCell id="D_m2Uv7tLHT4tkGTXmzc-53" value="7. 0&lt;br&gt;car finance" style="ellipse;whiteSpace=wrap;html=1;aspect=fixed;fillColor=#d5e8d4;strokeColor=#7add40;" parent="1" vertex="1">
          <mxGeometry x="-1" y="480" width="80" height="80" as="geometry" />
        </mxCell>
        <mxCell id="D_m2Uv7tLHT4tkGTXmzc-54" value="Enable location" style="text;html=1;strokeColor=none;fillColor=none;align=center;verticalAlign=middle;whiteSpace=wrap;rounded=0;rotation=0;" parent="1" vertex="1">
          <mxGeometry x="89" y="368.98" width="101.18" height="10" as="geometry" />
        </mxCell>
        <mxCell id="D_m2Uv7tLHT4tkGTXmzc-55" value="" style="endArrow=classic;html=1;curved=1;" parent="1" edge="1">
          <mxGeometry width="50" height="50" relative="1" as="geometry">
            <mxPoint x="86" y="396" as="sourcePoint" />
            <mxPoint x="330" y="370" as="targetPoint" />
            <Array as="points">
              <mxPoint x="146" y="386" />
            </Array>
          </mxGeometry>
        </mxCell>
        <mxCell id="D_m2Uv7tLHT4tkGTXmzc-60" value="" style="endArrow=classic;html=1;curved=1;" parent="1" edge="1">
          <mxGeometry width="50" height="50" relative="1" as="geometry">
            <mxPoint x="330" y="380" as="sourcePoint" />
            <mxPoint x="79" y="410" as="targetPoint" />
            <Array as="points">
              <mxPoint x="170" y="440" />
            </Array>
          </mxGeometry>
        </mxCell>
        <mxCell id="D_m2Uv7tLHT4tkGTXmzc-61" value="&amp;nbsp;nearest Station" style="text;html=1;strokeColor=none;fillColor=none;align=center;verticalAlign=middle;whiteSpace=wrap;rounded=0;rotation=0;" parent="1" vertex="1">
          <mxGeometry x="107" y="399.04" width="87" height="15" as="geometry" />
        </mxCell>
        <mxCell id="D_m2Uv7tLHT4tkGTXmzc-62" value="" style="endArrow=classic;html=1;curved=1;" parent="1" edge="1">
          <mxGeometry width="50" height="50" relative="1" as="geometry">
            <mxPoint x="360" y="380" as="sourcePoint" />
            <mxPoint x="78" y="505.51" as="targetPoint" />
            <Array as="points">
              <mxPoint x="139" y="535.51" />
            </Array>
          </mxGeometry>
        </mxCell>
        <mxCell id="D_m2Uv7tLHT4tkGTXmzc-63" value="" style="endArrow=classic;html=1;curved=1;" parent="1" edge="1">
          <mxGeometry width="50" height="50" relative="1" as="geometry">
            <mxPoint x="80" y="535.51" as="sourcePoint" />
            <mxPoint x="370" y="400" as="targetPoint" />
            <Array as="points">
              <mxPoint x="141" y="565.51" />
            </Array>
          </mxGeometry>
        </mxCell>
        <mxCell id="D_m2Uv7tLHT4tkGTXmzc-64" value="9. 0&lt;br&gt;Showroom&amp;nbsp;" style="ellipse;whiteSpace=wrap;html=1;aspect=fixed;fillColor=#d5e8d4;strokeColor=#7add40;" parent="1" vertex="1">
          <mxGeometry x="239" y="560" width="80" height="80" as="geometry" />
        </mxCell>
        <mxCell id="D_m2Uv7tLHT4tkGTXmzc-65" value="" style="endArrow=classic;html=1;curved=1;entryX=0.664;entryY=-0.017;entryDx=0;entryDy=0;entryPerimeter=0;" parent="1" edge="1">
          <mxGeometry width="50" height="50" relative="1" as="geometry">
            <mxPoint x="377" y="424" as="sourcePoint" />
            <mxPoint x="286.9999999999999" y="559.64" as="targetPoint" />
            <Array as="points">
              <mxPoint x="324.88" y="521" />
            </Array>
          </mxGeometry>
        </mxCell>
        <mxCell id="D_m2Uv7tLHT4tkGTXmzc-66" value="" style="endArrow=classic;html=1;curved=1;exitX=0.664;exitY=-0.017;exitDx=0;exitDy=0;exitPerimeter=0;" parent="1" edge="1">
          <mxGeometry width="50" height="50" relative="1" as="geometry">
            <mxPoint x="315.68" y="580" as="sourcePoint" />
            <mxPoint x="407" y="434" as="targetPoint" />
            <Array as="points">
              <mxPoint x="353.68" y="541" />
            </Array>
          </mxGeometry>
        </mxCell>
        <mxCell id="D_m2Uv7tLHT4tkGTXmzc-67" value="Enable location" style="text;html=1;strokeColor=none;fillColor=none;align=center;verticalAlign=middle;whiteSpace=wrap;rounded=0;rotation=-60;" parent="1" vertex="1">
          <mxGeometry x="266.99999999999994" y="487" width="101.18" height="10" as="geometry" />
        </mxCell>
        <mxCell id="D_m2Uv7tLHT4tkGTXmzc-68" value="dispaly&amp;nbsp; nearest showroom" style="text;html=1;strokeColor=none;fillColor=none;align=center;verticalAlign=middle;whiteSpace=wrap;rounded=0;rotation=-55;" parent="1" vertex="1">
          <mxGeometry x="297" y="511" width="90.41" height="15" as="geometry" />
        </mxCell>
        <mxCell id="D_m2Uv7tLHT4tkGTXmzc-69" value="Select" style="text;html=1;strokeColor=none;fillColor=none;align=center;verticalAlign=middle;whiteSpace=wrap;rounded=0;rotation=0;" parent="1" vertex="1">
          <mxGeometry x="120" y="473.5" width="52" height="15" as="geometry" />
        </mxCell>
        <mxCell id="D_m2Uv7tLHT4tkGTXmzc-70" value="Calc for installment" style="text;html=1;strokeColor=none;fillColor=none;align=center;verticalAlign=middle;whiteSpace=wrap;rounded=0;rotation=-30;" parent="1" vertex="1">
          <mxGeometry x="120" y="496" width="114" height="15" as="geometry" />
        </mxCell>
        <mxCell id="D_m2Uv7tLHT4tkGTXmzc-76" value="8. 0&lt;br&gt;Car side assistance" style="ellipse;whiteSpace=wrap;html=1;aspect=fixed;fillColor=#d5e8d4;strokeColor=#7add40;" parent="1" vertex="1">
          <mxGeometry x="-1" y="40" width="80" height="80" as="geometry" />
        </mxCell>
        <mxCell id="D_m2Uv7tLHT4tkGTXmzc-80" value="Enable location" style="text;html=1;strokeColor=none;fillColor=none;align=center;verticalAlign=middle;whiteSpace=wrap;rounded=0;rotation=30;" parent="1" vertex="1">
          <mxGeometry x="184" y="100" width="129" height="10" as="geometry" />
        </mxCell>
        <mxCell id="D_m2Uv7tLHT4tkGTXmzc-82" value="" style="endArrow=classic;html=1;curved=1;exitX=1;exitY=0.283;exitDx=0;exitDy=0;exitPerimeter=0;" parent="1" edge="1">
          <mxGeometry width="50" height="50" relative="1" as="geometry">
            <mxPoint x="81" y="68.6400000000001" as="sourcePoint" />
            <mxPoint x="410" y="220" as="targetPoint" />
            <Array as="points">
              <mxPoint x="151" y="56" />
            </Array>
          </mxGeometry>
        </mxCell>
        <mxCell id="D_m2Uv7tLHT4tkGTXmzc-83" value="" style="endArrow=classic;html=1;curved=1;" parent="1" edge="1">
          <mxGeometry width="50" height="50" relative="1" as="geometry">
            <mxPoint x="390" y="240" as="sourcePoint" />
            <mxPoint x="90" y="93" as="targetPoint" />
            <Array as="points">
              <mxPoint x="160" y="123" />
            </Array>
          </mxGeometry>
        </mxCell>
        <mxCell id="D_m2Uv7tLHT4tkGTXmzc-87" value="" style="endArrow=classic;html=1;curved=1;" parent="1" edge="1">
          <mxGeometry width="50" height="50" relative="1" as="geometry">
            <mxPoint x="80" y="110" as="sourcePoint" />
            <mxPoint x="370" y="260" as="targetPoint" />
            <Array as="points">
              <mxPoint x="180" y="180" />
            </Array>
          </mxGeometry>
        </mxCell>
        <mxCell id="D_m2Uv7tLHT4tkGTXmzc-88" value="" style="endArrow=classic;html=1;curved=1;" parent="1" edge="1">
          <mxGeometry width="50" height="50" relative="1" as="geometry">
            <mxPoint x="350" y="270" as="sourcePoint" />
            <mxPoint x="64" y="130" as="targetPoint" />
            <Array as="points">
              <mxPoint x="124" y="229" />
            </Array>
          </mxGeometry>
        </mxCell>
        <mxCell id="D_m2Uv7tLHT4tkGTXmzc-89" value="Nearest side assistance" style="text;html=1;strokeColor=none;fillColor=none;align=center;verticalAlign=middle;whiteSpace=wrap;rounded=0;rotation=30;" parent="1" vertex="1">
          <mxGeometry x="173.93" y="148" width="145" height="10" as="geometry" />
        </mxCell>
        <mxCell id="D_m2Uv7tLHT4tkGTXmzc-90" value="select emergency num" style="text;html=1;strokeColor=none;fillColor=none;align=center;verticalAlign=middle;whiteSpace=wrap;rounded=0;rotation=30;" parent="1" vertex="1">
          <mxGeometry x="157" y="178" width="145" height="10" as="geometry" />
        </mxCell>
        <mxCell id="D_m2Uv7tLHT4tkGTXmzc-91" value="Display emergency num" style="text;html=1;strokeColor=none;fillColor=none;align=center;verticalAlign=middle;whiteSpace=wrap;rounded=0;rotation=25;" parent="1" vertex="1">
          <mxGeometry x="124" y="200" width="145" height="10" as="geometry" />
        </mxCell>
        <mxCell id="D_m2Uv7tLHT4tkGTXmzc-92" value="10. 0&lt;br&gt;Road emergency alerts" style="ellipse;whiteSpace=wrap;html=1;aspect=fixed;fillColor=#d5e8d4;strokeColor=#7add40;" parent="1" vertex="1">
          <mxGeometry x="439.2" y="559" width="80" height="80" as="geometry" />
        </mxCell>
        <mxCell id="D_m2Uv7tLHT4tkGTXmzc-93" value="" style="endArrow=classic;html=1;curved=1;" parent="1" edge="1">
          <mxGeometry width="50" height="50" relative="1" as="geometry">
            <mxPoint x="432" y="412" as="sourcePoint" />
            <mxPoint x="452" y="562" as="targetPoint" />
            <Array as="points">
              <mxPoint x="472" y="522" />
            </Array>
          </mxGeometry>
        </mxCell>
        <mxCell id="D_m2Uv7tLHT4tkGTXmzc-94" value="Enable location" style="text;html=1;strokeColor=none;fillColor=none;align=center;verticalAlign=middle;whiteSpace=wrap;rounded=0;rotation=-90;" parent="1" vertex="1">
          <mxGeometry x="388.60999999999996" y="497" width="101.18" height="10" as="geometry" />
        </mxCell>
        <mxCell id="D_m2Uv7tLHT4tkGTXmzc-95" value="" style="endArrow=classic;html=1;curved=1;" parent="1" edge="1">
          <mxGeometry width="50" height="50" relative="1" as="geometry">
            <mxPoint x="480" y="550" as="sourcePoint" />
            <mxPoint x="450" y="400" as="targetPoint" />
            <Array as="points">
              <mxPoint x="500" y="500" />
            </Array>
          </mxGeometry>
        </mxCell>
        <mxCell id="D_m2Uv7tLHT4tkGTXmzc-96" value="" style="endArrow=classic;html=1;curved=1;" parent="1" edge="1">
          <mxGeometry width="50" height="50" relative="1" as="geometry">
            <mxPoint x="470" y="400" as="sourcePoint" />
            <mxPoint x="502" y="561" as="targetPoint" />
            <Array as="points">
              <mxPoint x="522" y="521" />
            </Array>
          </mxGeometry>
        </mxCell>
        <mxCell id="D_m2Uv7tLHT4tkGTXmzc-97" value="" style="endArrow=classic;html=1;curved=1;" parent="1" edge="1">
          <mxGeometry width="50" height="50" relative="1" as="geometry">
            <mxPoint x="527" y="558" as="sourcePoint" />
            <mxPoint x="460" y="370" as="targetPoint" />
            <Array as="points">
              <mxPoint x="570" y="500" />
            </Array>
          </mxGeometry>
        </mxCell>
        <mxCell id="D_m2Uv7tLHT4tkGTXmzc-98" value="Enter city" style="text;html=1;strokeColor=none;fillColor=none;align=center;verticalAlign=middle;whiteSpace=wrap;rounded=0;rotation=-100;" parent="1" vertex="1">
          <mxGeometry x="441.19999999999993" y="489" width="101.18" height="10" as="geometry" />
        </mxCell>
        <mxCell id="D_m2Uv7tLHT4tkGTXmzc-99" value="Dispaly alerts" style="text;html=1;strokeColor=none;fillColor=none;align=center;verticalAlign=middle;whiteSpace=wrap;rounded=0;rotation=-105;" parent="1" vertex="1">
          <mxGeometry x="459.99999999999994" y="468" width="101.18" height="10" as="geometry" />
        </mxCell>
        <mxCell id="D_m2Uv7tLHT4tkGTXmzc-100" value="Dispaly alerts" style="text;html=1;strokeColor=none;fillColor=none;align=center;verticalAlign=middle;whiteSpace=wrap;rounded=0;rotation=-105;" parent="1" vertex="1">
          <mxGeometry x="419.0199999999999" y="477" width="101.18" height="10" as="geometry" />
        </mxCell>
        <mxCell id="D_m2Uv7tLHT4tkGTXmzc-101" value="11. 0&lt;br&gt;News&amp;nbsp;" style="ellipse;whiteSpace=wrap;html=1;aspect=fixed;fillColor=#d5e8d4;strokeColor=#7add40;" parent="1" vertex="1">
          <mxGeometry x="409.78999999999996" y="40" width="80" height="80" as="geometry" />
        </mxCell>
        <mxCell id="D_m2Uv7tLHT4tkGTXmzc-102" value="" style="endArrow=classic;html=1;curved=1;" parent="1" edge="1">
          <mxGeometry width="50" height="50" relative="1" as="geometry">
            <mxPoint x="460" y="270" as="sourcePoint" />
            <mxPoint x="470" y="120" as="targetPoint" />
            <Array as="points">
              <mxPoint x="510" y="190" />
              <mxPoint x="470" y="120" />
            </Array>
          </mxGeometry>
        </mxCell>
        <mxCell id="D_m2Uv7tLHT4tkGTXmzc-103" value="Enable notification" style="text;html=1;strokeColor=none;fillColor=none;align=center;verticalAlign=middle;whiteSpace=wrap;rounded=0;rotation=80;" parent="1" vertex="1">
          <mxGeometry x="460" y="168" width="129" height="10" as="geometry" />
        </mxCell>
        <mxCell id="D_m2Uv7tLHT4tkGTXmzc-104" value="" style="endArrow=classic;html=1;curved=1;" parent="1" edge="1">
          <mxGeometry width="50" height="50" relative="1" as="geometry">
            <mxPoint x="490" y="120" as="sourcePoint" />
            <mxPoint x="490" y="270" as="targetPoint" />
            <Array as="points">
              <mxPoint x="490" y="120" />
              <mxPoint x="530" y="190" />
            </Array>
          </mxGeometry>
        </mxCell>
        <mxCell id="D_m2Uv7tLHT4tkGTXmzc-105" value="Display news" style="text;html=1;strokeColor=none;fillColor=none;align=center;verticalAlign=middle;whiteSpace=wrap;rounded=0;rotation=85;" parent="1" vertex="1">
          <mxGeometry x="457.56" y="167.74" width="79.26" height="10" as="geometry" />
        </mxCell>
        <mxCell id="D_m2Uv7tLHT4tkGTXmzc-106" value="" style="endArrow=classic;html=1;curved=1;" parent="1" edge="1">
          <mxGeometry width="50" height="50" relative="1" as="geometry">
            <mxPoint x="442.2" y="122" as="sourcePoint" />
            <mxPoint x="442.2" y="272" as="targetPoint" />
            <Array as="points">
              <mxPoint x="442.2" y="122" />
              <mxPoint x="482.2" y="192" />
            </Array>
          </mxGeometry>
        </mxCell>
        <mxCell id="D_m2Uv7tLHT4tkGTXmzc-107" value="use filters" style="text;html=1;strokeColor=none;fillColor=none;align=center;verticalAlign=middle;whiteSpace=wrap;rounded=0;rotation=80;" parent="1" vertex="1">
          <mxGeometry x="439.43" y="176.1" width="62.18" height="10" as="geometry" />
        </mxCell>
        <mxCell id="D_m2Uv7tLHT4tkGTXmzc-109" value="" style="endArrow=classic;html=1;curved=1;" parent="1" edge="1">
          <mxGeometry width="50" height="50" relative="1" as="geometry">
            <mxPoint x="425" y="250" as="sourcePoint" />
            <mxPoint x="425" y="120" as="targetPoint" />
            <Array as="points">
              <mxPoint x="400" y="190" />
              <mxPoint x="425" y="120" />
            </Array>
          </mxGeometry>
        </mxCell>
        <mxCell id="D_m2Uv7tLHT4tkGTXmzc-110" value="Display filtered news" style="text;html=1;strokeColor=none;fillColor=none;align=center;verticalAlign=middle;whiteSpace=wrap;rounded=0;rotation=85;" parent="1" vertex="1">
          <mxGeometry x="392.2" y="186.10000000000002" width="79.26" height="10" as="geometry" />
        </mxCell>
        <mxCell id="D_m2Uv7tLHT4tkGTXmzc-111" value="12. 0&lt;br&gt;Transportation&amp;nbsp;" style="ellipse;whiteSpace=wrap;html=1;aspect=fixed;fillColor=#d5e8d4;strokeColor=#7add40;" parent="1" vertex="1">
          <mxGeometry x="675.16" width="80" height="80" as="geometry" />
        </mxCell>
        <mxCell id="D_m2Uv7tLHT4tkGTXmzc-112" value="" style="endArrow=classic;html=1;curved=1;" parent="1" edge="1">
          <mxGeometry width="50" height="50" relative="1" as="geometry">
            <mxPoint x="537.38" y="234.1" as="sourcePoint" />
            <mxPoint x="670" y="58" as="targetPoint" />
            <Array as="points">
              <mxPoint x="587.38" y="194.1" />
            </Array>
          </mxGeometry>
        </mxCell>
        <mxCell id="D_m2Uv7tLHT4tkGTXmzc-114" value="" style="endArrow=classic;html=1;curved=1;" parent="1" edge="1">
          <mxGeometry width="50" height="50" relative="1" as="geometry">
            <mxPoint x="566" y="261" as="sourcePoint" />
            <mxPoint x="706" y="91" as="targetPoint" />
            <Array as="points">
              <mxPoint x="623" y="230" />
            </Array>
          </mxGeometry>
        </mxCell>
        <mxCell id="D_m2Uv7tLHT4tkGTXmzc-115" value="" style="endArrow=classic;html=1;curved=1;" parent="1" edge="1">
          <mxGeometry width="50" height="50" relative="1" as="geometry">
            <mxPoint x="725" y="103" as="sourcePoint" />
            <mxPoint x="583" y="273" as="targetPoint" />
            <Array as="points">
              <mxPoint x="725" y="103" />
              <mxPoint x="703" y="174" />
            </Array>
          </mxGeometry>
        </mxCell>
        <mxCell id="D_m2Uv7tLHT4tkGTXmzc-117" value="" style="endArrow=classic;html=1;curved=1;" parent="1" edge="1">
          <mxGeometry width="50" height="50" relative="1" as="geometry">
            <mxPoint x="685" y="76" as="sourcePoint" />
            <mxPoint x="550" y="253" as="targetPoint" />
            <Array as="points">
              <mxPoint x="685" y="76" />
              <mxPoint x="660" y="146" />
            </Array>
          </mxGeometry>
        </mxCell>
        <mxCell id="D_m2Uv7tLHT4tkGTXmzc-118" value="" style="endArrow=classic;html=1;curved=1;" parent="1" edge="1">
          <mxGeometry width="50" height="50" relative="1" as="geometry">
            <mxPoint x="603" y="294" as="sourcePoint" />
            <mxPoint x="743" y="124" as="targetPoint" />
            <Array as="points">
              <mxPoint x="660" y="263" />
            </Array>
          </mxGeometry>
        </mxCell>
        <mxCell id="D_m2Uv7tLHT4tkGTXmzc-119" value="" style="endArrow=classic;html=1;curved=1;" parent="1" edge="1">
          <mxGeometry width="50" height="50" relative="1" as="geometry">
            <mxPoint x="757.16" y="130.5" as="sourcePoint" />
            <mxPoint x="615.16" y="300.5" as="targetPoint" />
            <Array as="points">
              <mxPoint x="757.16" y="130.5" />
              <mxPoint x="735.16" y="201.5" />
            </Array>
          </mxGeometry>
        </mxCell>
        <mxCell id="D_m2Uv7tLHT4tkGTXmzc-120" value="Select&amp;nbsp;" style="text;html=1;strokeColor=none;fillColor=none;align=center;verticalAlign=middle;whiteSpace=wrap;rounded=0;rotation=-55;" parent="1" vertex="1">
          <mxGeometry x="580" y="138" width="40" height="10" as="geometry" />
        </mxCell>
        <mxCell id="D_m2Uv7tLHT4tkGTXmzc-122" value="Display all companies" style="text;html=1;strokeColor=none;fillColor=none;align=center;verticalAlign=middle;whiteSpace=wrap;rounded=0;rotation=-50;" parent="1" vertex="1">
          <mxGeometry x="557.38" y="157" width="120" height="10" as="geometry" />
        </mxCell>
        <mxCell id="D_m2Uv7tLHT4tkGTXmzc-123" value="car type" style="text;html=1;strokeColor=none;fillColor=none;align=center;verticalAlign=middle;whiteSpace=wrap;rounded=0;rotation=-50;" parent="1" vertex="1">
          <mxGeometry x="578" y="168" width="120" height="10" as="geometry" />
        </mxCell>
        <mxCell id="D_m2Uv7tLHT4tkGTXmzc-124" value="Dispaly all cars" style="text;html=1;strokeColor=none;fillColor=none;align=center;verticalAlign=middle;whiteSpace=wrap;rounded=0;rotation=-50;" parent="1" vertex="1">
          <mxGeometry x="600" y="178" width="120" height="10" as="geometry" />
        </mxCell>
        <mxCell id="D_m2Uv7tLHT4tkGTXmzc-125" value="send message to company" style="text;html=1;strokeColor=none;fillColor=none;align=center;verticalAlign=middle;whiteSpace=wrap;rounded=1;rotation=-50;arcSize=0;glass=0;" parent="1" vertex="1">
          <mxGeometry x="602" y="212" width="126.77" height="5" as="geometry" />
        </mxCell>
        <mxCell id="D_m2Uv7tLHT4tkGTXmzc-127" value="Company’s reply" style="text;html=1;strokeColor=none;fillColor=none;align=center;verticalAlign=middle;whiteSpace=wrap;rounded=0;rotation=-55;" parent="1" vertex="1">
          <mxGeometry x="642" y="197" width="120" height="10" as="geometry" />
        </mxCell>
        <mxCell id="D_m2Uv7tLHT4tkGTXmzc-128" value="Company" style="shape=umlActor;verticalLabelPosition=bottom;verticalAlign=top;html=1;outlineConnect=0;" parent="1" vertex="1">
          <mxGeometry x="110" y="879" width="40" height="110" as="geometry" />
        </mxCell>
        <mxCell id="1v5EE29N9hAP69D6XQme-5" style="edgeStyle=orthogonalEdgeStyle;rounded=1;orthogonalLoop=1;jettySize=auto;html=1;entryX=0;entryY=1;entryDx=0;entryDy=0;" parent="1" source="D_m2Uv7tLHT4tkGTXmzc-129" target="D_m2Uv7tLHT4tkGTXmzc-130" edge="1">
          <mxGeometry relative="1" as="geometry">
            <Array as="points">
              <mxPoint x="135" y="1029" />
              <mxPoint x="350" y="1029" />
              <mxPoint x="350" y="1009" />
            </Array>
          </mxGeometry>
        </mxCell>
        <mxCell id="D_m2Uv7tLHT4tkGTXmzc-129" value="Showroom" style="shape=umlActor;verticalLabelPosition=bottom;verticalAlign=top;html=1;outlineConnect=0;" parent="1" vertex="1">
          <mxGeometry x="115" y="1079" width="40" height="110" as="geometry" />
        </mxCell>
        <mxCell id="D_m2Uv7tLHT4tkGTXmzc-130" value="13. 0&lt;br&gt;Add" style="ellipse;whiteSpace=wrap;html=1;aspect=fixed;fillColor=#d5e8d4;strokeColor=#7add40;" parent="1" vertex="1">
          <mxGeometry x="339.02" y="909" width="80" height="80" as="geometry" />
        </mxCell>
        <mxCell id="D_m2Uv7tLHT4tkGTXmzc-131" value="14. 0&lt;br&gt;Edit" style="ellipse;whiteSpace=wrap;html=1;aspect=fixed;fillColor=#d5e8d4;strokeColor=#7add40;" parent="1" vertex="1">
          <mxGeometry x="297" y="1109" width="80" height="80" as="geometry" />
        </mxCell>
        <mxCell id="D_m2Uv7tLHT4tkGTXmzc-132" value="" style="endArrow=classic;html=1;curved=1;entryX=0;entryY=0;entryDx=0;entryDy=0;" parent="1" target="D_m2Uv7tLHT4tkGTXmzc-130" edge="1">
          <mxGeometry width="50" height="50" relative="1" as="geometry">
            <mxPoint x="170" y="909" as="sourcePoint" />
            <mxPoint x="269" y="949" as="targetPoint" />
            <Array as="points">
              <mxPoint x="230" y="879" />
            </Array>
          </mxGeometry>
        </mxCell>
        <mxCell id="D_m2Uv7tLHT4tkGTXmzc-133" value="" style="endArrow=classic;html=1;curved=1;entryX=0;entryY=0.5;entryDx=0;entryDy=0;" parent="1" target="D_m2Uv7tLHT4tkGTXmzc-130" edge="1">
          <mxGeometry width="50" height="50" relative="1" as="geometry">
            <mxPoint x="155" y="943" as="sourcePoint" />
            <mxPoint x="336" y="955" as="targetPoint" />
            <Array as="points">
              <mxPoint x="215" y="913" />
            </Array>
          </mxGeometry>
        </mxCell>
        <mxCell id="D_m2Uv7tLHT4tkGTXmzc-134" value="" style="endArrow=classic;html=1;curved=1;entryX=0;entryY=0;entryDx=0;entryDy=0;" parent="1" target="D_m2Uv7tLHT4tkGTXmzc-131" edge="1">
          <mxGeometry width="50" height="50" relative="1" as="geometry">
            <mxPoint x="160" y="969" as="sourcePoint" />
            <mxPoint x="321.5" y="995" as="targetPoint" />
            <Array as="points">
              <mxPoint x="197.5" y="959" />
            </Array>
          </mxGeometry>
        </mxCell>
        <mxCell id="D_m2Uv7tLHT4tkGTXmzc-135" value="" style="endArrow=classic;html=1;curved=1;entryX=0;entryY=0.5;entryDx=0;entryDy=0;" parent="1" target="D_m2Uv7tLHT4tkGTXmzc-131" edge="1">
          <mxGeometry width="50" height="50" relative="1" as="geometry">
            <mxPoint x="160" y="1131" as="sourcePoint" />
            <mxPoint x="361" y="1131" as="targetPoint" />
            <Array as="points">
              <mxPoint x="220" y="1099" />
            </Array>
          </mxGeometry>
        </mxCell>
        <mxCell id="D_m2Uv7tLHT4tkGTXmzc-136" value="Edit vehicle info" style="text;html=1;strokeColor=none;fillColor=none;align=center;verticalAlign=middle;whiteSpace=wrap;rounded=0;rotation=0;" parent="1" vertex="1">
          <mxGeometry x="173.93" y="1099" width="114" height="14" as="geometry" />
        </mxCell>
        <mxCell id="D_m2Uv7tLHT4tkGTXmzc-137" value="Edit vehicle info" style="text;html=1;strokeColor=none;fillColor=none;align=center;verticalAlign=middle;whiteSpace=wrap;rounded=0;rotation=50;" parent="1" vertex="1">
          <mxGeometry x="243.64" y="1060.6399999999999" width="96" height="14" as="geometry" />
        </mxCell>
        <mxCell id="D_m2Uv7tLHT4tkGTXmzc-138" value="add vehicle for transportation" style="text;html=1;strokeColor=none;fillColor=none;align=center;verticalAlign=middle;whiteSpace=wrap;rounded=0;rotation=0;" parent="1" vertex="1">
          <mxGeometry x="163" y="912" width="163" height="14" as="geometry" />
        </mxCell>
        <mxCell id="D_m2Uv7tLHT4tkGTXmzc-139" value="add new vehicle&amp;nbsp;" style="text;html=1;strokeColor=none;fillColor=none;align=center;verticalAlign=middle;whiteSpace=wrap;rounded=0;rotation=0;" parent="1" vertex="1">
          <mxGeometry x="163" y="877" width="163" height="14" as="geometry" />
        </mxCell>
        <mxCell id="D_m2Uv7tLHT4tkGTXmzc-141" style="edgeStyle=orthogonalEdgeStyle;rounded=0;orthogonalLoop=1;jettySize=auto;html=1;entryX=1;entryY=0.5;entryDx=0;entryDy=0;" parent="1" source="D_m2Uv7tLHT4tkGTXmzc-140" target="D_m2Uv7tLHT4tkGTXmzc-131" edge="1">
          <mxGeometry relative="1" as="geometry" />
        </mxCell>
        <mxCell id="D_m2Uv7tLHT4tkGTXmzc-140" value="Shop" style="shape=umlActor;verticalLabelPosition=bottom;verticalAlign=top;html=1;outlineConnect=0;" parent="1" vertex="1">
          <mxGeometry x="570" y="1094" width="40" height="110" as="geometry" />
        </mxCell>
        <mxCell id="D_m2Uv7tLHT4tkGTXmzc-142" value="Edit eqiupment" style="text;html=1;strokeColor=none;fillColor=none;align=center;verticalAlign=middle;whiteSpace=wrap;rounded=0;rotation=0;" parent="1" vertex="1">
          <mxGeometry x="434.79" y="1127" width="114" height="14" as="geometry" />
        </mxCell>
        <mxCell id="1v5EE29N9hAP69D6XQme-1" value="" style="endArrow=classic;html=1;rounded=0;entryX=0.902;entryY=0.775;entryDx=0;entryDy=0;entryPerimeter=0;" parent="1" target="D_m2Uv7tLHT4tkGTXmzc-130" edge="1">
          <mxGeometry width="50" height="50" relative="1" as="geometry">
            <mxPoint x="560" y="1099" as="sourcePoint" />
            <mxPoint x="430" y="989" as="targetPoint" />
          </mxGeometry>
        </mxCell>
        <mxCell id="1v5EE29N9hAP69D6XQme-2" value="Add eqiupment" style="text;html=1;strokeColor=none;fillColor=none;align=center;verticalAlign=middle;whiteSpace=wrap;rounded=0;rotation=40;" parent="1" vertex="1">
          <mxGeometry x="447.18000000000006" y="1019" width="114" height="14" as="geometry" />
        </mxCell>
        <mxCell id="1v5EE29N9hAP69D6XQme-3" value="" style="endArrow=classic;html=1;entryX=0.012;entryY=0.715;entryDx=0;entryDy=0;curved=1;entryPerimeter=0;" parent="1" source="D_m2Uv7tLHT4tkGTXmzc-129" target="D_m2Uv7tLHT4tkGTXmzc-130" edge="1">
          <mxGeometry width="50" height="50" relative="1" as="geometry">
            <mxPoint x="380" y="1039" as="sourcePoint" />
            <mxPoint x="430" y="989" as="targetPoint" />
            <Array as="points">
              <mxPoint x="220" y="969" />
            </Array>
          </mxGeometry>
        </mxCell>
        <mxCell id="1v5EE29N9hAP69D6XQme-4" value="add new vehicle&amp;nbsp;" style="text;html=1;strokeColor=none;fillColor=none;align=center;verticalAlign=middle;whiteSpace=wrap;rounded=0;rotation=-15;" parent="1" vertex="1">
          <mxGeometry x="218" y="959" width="93.36" height="14" as="geometry" />
        </mxCell>
        <mxCell id="1v5EE29N9hAP69D6XQme-6" value="add used vehicle&amp;nbsp;" style="text;html=1;strokeColor=none;fillColor=none;align=center;verticalAlign=middle;whiteSpace=wrap;rounded=0;rotation=0;" parent="1" vertex="1">
          <mxGeometry x="246.28" y="1005" width="93.36" height="14" as="geometry" />
        </mxCell>
        <mxCell id="IZZyQsye6YI3I2g3l-x3-1" value="&lt;font style=&quot;font-size: 18px;&quot;&gt;New vehicles&amp;nbsp;&lt;/font&gt;" style="html=1;dashed=0;whiteSpace=wrap;shape=partialRectangle;right=0;left=0;" vertex="1" parent="1">
          <mxGeometry x="1240" y="160" width="160" height="40" as="geometry" />
        </mxCell>
        <mxCell id="IZZyQsye6YI3I2g3l-x3-2" value="&lt;font style=&quot;font-size: 18px;&quot;&gt;used vehicles&amp;nbsp;&lt;/font&gt;" style="html=1;dashed=0;whiteSpace=wrap;shape=partialRectangle;right=0;left=0;" vertex="1" parent="1">
          <mxGeometry x="1240" y="280" width="160" height="38" as="geometry" />
        </mxCell>
        <mxCell id="IZZyQsye6YI3I2g3l-x3-3" value="" style="endArrow=classic;html=1;rounded=0;entryX=1;entryY=0.5;entryDx=0;entryDy=0;exitX=0;exitY=0.25;exitDx=0;exitDy=0;" edge="1" parent="1" source="IZZyQsye6YI3I2g3l-x3-1" target="D_m2Uv7tLHT4tkGTXmzc-2">
          <mxGeometry width="50" height="50" relative="1" as="geometry">
            <mxPoint x="1110" y="330" as="sourcePoint" />
            <mxPoint x="1160" y="280" as="targetPoint" />
          </mxGeometry>
        </mxCell>
        <mxCell id="IZZyQsye6YI3I2g3l-x3-4" value="&lt;font style=&quot;font-size: 18px;&quot;&gt;vehicle info&amp;nbsp;&lt;/font&gt;" style="html=1;dashed=0;whiteSpace=wrap;shape=partialRectangle;right=0;left=0;" vertex="1" parent="1">
          <mxGeometry x="1240" y="399.04" width="160" height="40.96" as="geometry" />
        </mxCell>
        <mxCell id="IZZyQsye6YI3I2g3l-x3-5" value="" style="endArrow=classic;html=1;rounded=0;entryX=1;entryY=1;entryDx=0;entryDy=0;exitX=0;exitY=0.25;exitDx=0;exitDy=0;" edge="1" parent="1" source="IZZyQsye6YI3I2g3l-x3-2" target="D_m2Uv7tLHT4tkGTXmzc-2">
          <mxGeometry width="50" height="50" relative="1" as="geometry">
            <mxPoint x="1250" y="180" as="sourcePoint" />
            <mxPoint x="975" y="207" as="targetPoint" />
          </mxGeometry>
        </mxCell>
        <mxCell id="IZZyQsye6YI3I2g3l-x3-6" value="" style="endArrow=classic;html=1;rounded=0;entryX=0.5;entryY=1;entryDx=0;entryDy=0;exitX=0;exitY=0.25;exitDx=0;exitDy=0;" edge="1" parent="1" source="IZZyQsye6YI3I2g3l-x3-4" target="D_m2Uv7tLHT4tkGTXmzc-2">
          <mxGeometry width="50" height="50" relative="1" as="geometry">
            <mxPoint x="1250" y="300" as="sourcePoint" />
            <mxPoint x="963" y="235" as="targetPoint" />
          </mxGeometry>
        </mxCell>
        <mxCell id="IZZyQsye6YI3I2g3l-x3-7" value="" style="endArrow=classic;html=1;rounded=0;exitX=1;exitY=0;exitDx=0;exitDy=0;entryX=0;entryY=0.75;entryDx=0;entryDy=0;" edge="1" parent="1" source="D_m2Uv7tLHT4tkGTXmzc-3" target="IZZyQsye6YI3I2g3l-x3-2">
          <mxGeometry width="50" height="50" relative="1" as="geometry">
            <mxPoint x="1250" y="419" as="sourcePoint" />
            <mxPoint x="1020" y="420" as="targetPoint" />
          </mxGeometry>
        </mxCell>
        <mxCell id="IZZyQsye6YI3I2g3l-x3-8" value="" style="endArrow=classic;html=1;rounded=0;exitX=1;exitY=1;exitDx=0;exitDy=0;entryX=0;entryY=0.75;entryDx=0;entryDy=0;" edge="1" parent="1" source="D_m2Uv7tLHT4tkGTXmzc-3" target="IZZyQsye6YI3I2g3l-x3-4">
          <mxGeometry width="50" height="50" relative="1" as="geometry">
            <mxPoint x="965" y="299" as="sourcePoint" />
            <mxPoint x="1250" y="318" as="targetPoint" />
          </mxGeometry>
        </mxCell>
        <mxCell id="IZZyQsye6YI3I2g3l-x3-9" value="" style="endArrow=classic;html=1;rounded=0;exitX=1;exitY=0;exitDx=0;exitDy=0;entryX=0.25;entryY=1;entryDx=0;entryDy=0;" edge="1" parent="1" source="D_m2Uv7tLHT4tkGTXmzc-4" target="IZZyQsye6YI3I2g3l-x3-2">
          <mxGeometry width="50" height="50" relative="1" as="geometry">
            <mxPoint x="964" y="355" as="sourcePoint" />
            <mxPoint x="1250" y="440" as="targetPoint" />
          </mxGeometry>
        </mxCell>
        <mxCell id="IZZyQsye6YI3I2g3l-x3-10" value="" style="endArrow=classic;html=1;rounded=0;exitX=0.5;exitY=1;exitDx=0;exitDy=0;entryX=1;entryY=1;entryDx=0;entryDy=0;" edge="1" parent="1" source="IZZyQsye6YI3I2g3l-x3-2" target="D_m2Uv7tLHT4tkGTXmzc-4">
          <mxGeometry width="50" height="50" relative="1" as="geometry">
            <mxPoint x="1290" y="328" as="sourcePoint" />
            <mxPoint x="963" y="419" as="targetPoint" />
          </mxGeometry>
        </mxCell>
        <mxCell id="IZZyQsye6YI3I2g3l-x3-11" value="New vehicles" style="text;html=1;strokeColor=none;fillColor=none;align=center;verticalAlign=middle;whiteSpace=wrap;rounded=0;rotation=-5;" vertex="1" parent="1">
          <mxGeometry x="1050.06" y="172.31" width="90" as="geometry" />
        </mxCell>
        <mxCell id="IZZyQsye6YI3I2g3l-x3-12" value="used vehicles" style="text;html=1;strokeColor=none;fillColor=none;align=center;verticalAlign=middle;whiteSpace=wrap;rounded=0;rotation=15;" vertex="1" parent="1">
          <mxGeometry x="1077.34" y="249.41" width="80" as="geometry" />
        </mxCell>
        <mxCell id="IZZyQsye6YI3I2g3l-x3-13" value="car info" style="text;html=1;strokeColor=none;fillColor=none;align=center;verticalAlign=middle;whiteSpace=wrap;rounded=0;rotation=30;" vertex="1" parent="1">
          <mxGeometry x="1070.06" y="318" width="50" as="geometry" />
        </mxCell>
        <mxCell id="IZZyQsye6YI3I2g3l-x3-14" value="save" style="text;html=1;strokeColor=none;fillColor=none;align=center;verticalAlign=middle;whiteSpace=wrap;rounded=0;rotation=0;" vertex="1" parent="1">
          <mxGeometry x="1070.06" y="287" width="50" as="geometry" />
        </mxCell>
        <mxCell id="IZZyQsye6YI3I2g3l-x3-15" value="save" style="text;html=1;strokeColor=none;fillColor=none;align=center;verticalAlign=middle;whiteSpace=wrap;rounded=0;rotation=15;" vertex="1" parent="1">
          <mxGeometry x="1000.32" y="356.03" width="50" height="2" as="geometry" />
        </mxCell>
        <mxCell id="IZZyQsye6YI3I2g3l-x3-16" value="Prices" style="text;html=1;strokeColor=none;fillColor=none;align=center;verticalAlign=middle;whiteSpace=wrap;rounded=0;rotation=-20;" vertex="1" parent="1">
          <mxGeometry x="1010.32" y="420.03999999999996" width="50" height="2" as="geometry" />
        </mxCell>
        <mxCell id="IZZyQsye6YI3I2g3l-x3-17" value="Search by model + year" style="text;html=1;strokeColor=none;fillColor=none;align=center;verticalAlign=middle;whiteSpace=wrap;rounded=0;rotation=-20;" vertex="1" parent="1">
          <mxGeometry x="940" y="379.97999999999996" width="79.68" height="2" as="geometry" />
        </mxCell>
        <mxCell id="IZZyQsye6YI3I2g3l-x3-18" value="Google maps" style="html=1;dashed=0;whiteSpace=wrap;shape=partialRectangle;right=0;left=0;" vertex="1" parent="1">
          <mxGeometry x="-200" y="640" width="130" height="40" as="geometry" />
        </mxCell>
        <mxCell id="IZZyQsye6YI3I2g3l-x3-19" value="Shops location" style="html=1;dashed=0;whiteSpace=wrap;shape=partialRectangle;right=0;left=0;" vertex="1" parent="1">
          <mxGeometry x="-370" y="519" width="130" height="40" as="geometry" />
        </mxCell>
        <mxCell id="IZZyQsye6YI3I2g3l-x3-20" value="" style="endArrow=classic;html=1;rounded=0;entryX=0;entryY=1;entryDx=0;entryDy=0;exitX=0.5;exitY=0;exitDx=0;exitDy=0;" edge="1" parent="1" source="IZZyQsye6YI3I2g3l-x3-18" target="D_m2Uv7tLHT4tkGTXmzc-39">
          <mxGeometry width="50" height="50" relative="1" as="geometry">
            <mxPoint x="-360" y="570" as="sourcePoint" />
            <mxPoint x="-310" y="520" as="targetPoint" />
          </mxGeometry>
        </mxCell>
        <mxCell id="IZZyQsye6YI3I2g3l-x3-21" value="" style="endArrow=classic;html=1;rounded=0;entryX=0;entryY=0.5;entryDx=0;entryDy=0;" edge="1" parent="1" source="IZZyQsye6YI3I2g3l-x3-19" target="D_m2Uv7tLHT4tkGTXmzc-39">
          <mxGeometry width="50" height="50" relative="1" as="geometry">
            <mxPoint x="-125" y="650" as="sourcePoint" />
            <mxPoint x="23" y="316" as="targetPoint" />
          </mxGeometry>
        </mxCell>
        <mxCell id="IZZyQsye6YI3I2g3l-x3-22" value="Shops" style="text;html=1;strokeColor=none;fillColor=none;align=center;verticalAlign=middle;whiteSpace=wrap;rounded=0;" vertex="1" parent="1">
          <mxGeometry x="-230" y="408.08000000000004" width="60" height="5.96" as="geometry" />
        </mxCell>
        <mxCell id="IZZyQsye6YI3I2g3l-x3-23" value="Shops" style="text;html=1;strokeColor=none;fillColor=none;align=center;verticalAlign=middle;whiteSpace=wrap;rounded=0;" vertex="1" parent="1">
          <mxGeometry x="-120" y="473.50000000000006" width="60" height="5.96" as="geometry" />
        </mxCell>
        <mxCell id="IZZyQsye6YI3I2g3l-x3-24" value="List of maintenance" style="html=1;dashed=0;whiteSpace=wrap;shape=partialRectangle;right=0;left=0;" vertex="1" parent="1">
          <mxGeometry x="-381" y="279" width="130" height="40" as="geometry" />
        </mxCell>
        <mxCell id="IZZyQsye6YI3I2g3l-x3-25" value="" style="endArrow=classic;html=1;rounded=0;entryX=0.5;entryY=0;entryDx=0;entryDy=0;exitX=1;exitY=0;exitDx=0;exitDy=0;" edge="1" parent="1" source="IZZyQsye6YI3I2g3l-x3-24" target="D_m2Uv7tLHT4tkGTXmzc-39">
          <mxGeometry width="50" height="50" relative="1" as="geometry">
            <mxPoint x="-360" y="380" as="sourcePoint" />
            <mxPoint x="-310" y="330" as="targetPoint" />
          </mxGeometry>
        </mxCell>
        <mxCell id="IZZyQsye6YI3I2g3l-x3-26" value="" style="endArrow=classic;html=1;rounded=0;entryX=1;entryY=0.5;entryDx=0;entryDy=0;" edge="1" parent="1" target="IZZyQsye6YI3I2g3l-x3-24">
          <mxGeometry width="50" height="50" relative="1" as="geometry">
            <mxPoint y="260" as="sourcePoint" />
            <mxPoint x="51" y="248" as="targetPoint" />
          </mxGeometry>
        </mxCell>
        <mxCell id="IZZyQsye6YI3I2g3l-x3-27" value="view" style="text;html=1;strokeColor=none;fillColor=none;align=center;verticalAlign=middle;whiteSpace=wrap;rounded=0;" vertex="1" parent="1">
          <mxGeometry x="-240" y="302.02000000000004" width="60" height="5.96" as="geometry" />
        </mxCell>
        <mxCell id="IZZyQsye6YI3I2g3l-x3-28" value="save" style="text;html=1;strokeColor=none;fillColor=none;align=center;verticalAlign=middle;whiteSpace=wrap;rounded=0;" vertex="1" parent="1">
          <mxGeometry x="-230" y="253.00000000000003" width="60" height="5.96" as="geometry" />
        </mxCell>
        <mxCell id="IZZyQsye6YI3I2g3l-x3-29" value="" style="endArrow=classic;html=1;entryX=1;entryY=0.75;entryDx=0;entryDy=0;exitX=1;exitY=0;exitDx=0;exitDy=0;curved=1;" edge="1" parent="1" source="D_m2Uv7tLHT4tkGTXmzc-27" target="IZZyQsye6YI3I2g3l-x3-2">
          <mxGeometry width="50" height="50" relative="1" as="geometry">
            <mxPoint x="930" y="430" as="sourcePoint" />
            <mxPoint x="980" y="380" as="targetPoint" />
            <Array as="points">
              <mxPoint x="1780" y="510" />
            </Array>
          </mxGeometry>
        </mxCell>
        <mxCell id="IZZyQsye6YI3I2g3l-x3-30" value="" style="endArrow=classic;html=1;entryX=1;entryY=0.25;entryDx=0;entryDy=0;exitX=1;exitY=0.5;exitDx=0;exitDy=0;curved=1;" edge="1" parent="1" source="D_m2Uv7tLHT4tkGTXmzc-27" target="IZZyQsye6YI3I2g3l-x3-2">
          <mxGeometry width="50" height="50" relative="1" as="geometry">
            <mxPoint x="963" y="542" as="sourcePoint" />
            <mxPoint x="1410" y="319" as="targetPoint" />
            <Array as="points">
              <mxPoint x="1860" y="520" />
            </Array>
          </mxGeometry>
        </mxCell>
        <mxCell id="IZZyQsye6YI3I2g3l-x3-31" value="Search" style="text;html=1;strokeColor=none;fillColor=none;align=center;verticalAlign=middle;whiteSpace=wrap;rounded=0;rotation=0;" vertex="1" parent="1">
          <mxGeometry x="1120.06" y="506" width="50" as="geometry" />
        </mxCell>
        <mxCell id="IZZyQsye6YI3I2g3l-x3-33" value="available" style="text;html=1;strokeColor=none;fillColor=none;align=center;verticalAlign=middle;whiteSpace=wrap;rounded=0;rotation=0;" vertex="1" parent="1">
          <mxGeometry x="1150" y="560" width="50" as="geometry" />
        </mxCell>
        <mxCell id="IZZyQsye6YI3I2g3l-x3-34" value="" style="endArrow=classic;html=1;exitX=1;exitY=0;exitDx=0;exitDy=0;entryX=1;entryY=0.5;entryDx=0;entryDy=0;curved=1;" edge="1" parent="1" source="D_m2Uv7tLHT4tkGTXmzc-130" target="IZZyQsye6YI3I2g3l-x3-1">
          <mxGeometry width="50" height="50" relative="1" as="geometry">
            <mxPoint x="470" y="690" as="sourcePoint" />
            <mxPoint x="520" y="640" as="targetPoint" />
            <Array as="points">
              <mxPoint x="2030" y="690" />
            </Array>
          </mxGeometry>
        </mxCell>
        <mxCell id="IZZyQsye6YI3I2g3l-x3-35" value="" style="endArrow=classic;html=1;exitX=1;exitY=0.5;exitDx=0;exitDy=0;entryX=0.75;entryY=1;entryDx=0;entryDy=0;curved=1;" edge="1" parent="1" source="D_m2Uv7tLHT4tkGTXmzc-130" target="IZZyQsye6YI3I2g3l-x3-2">
          <mxGeometry width="50" height="50" relative="1" as="geometry">
            <mxPoint x="1140" y="630" as="sourcePoint" />
            <mxPoint x="1190" y="580" as="targetPoint" />
            <Array as="points">
              <mxPoint x="1110" y="850" />
              <mxPoint x="1600" y="640" />
              <mxPoint x="1500" y="390" />
            </Array>
          </mxGeometry>
        </mxCell>
        <mxCell id="IZZyQsye6YI3I2g3l-x3-36" value="add" style="text;html=1;strokeColor=none;fillColor=none;align=center;verticalAlign=middle;whiteSpace=wrap;rounded=0;rotation=0;" vertex="1" parent="1">
          <mxGeometry x="1430" y="186.10000000000002" width="50" height="9" as="geometry" />
        </mxCell>
        <mxCell id="IZZyQsye6YI3I2g3l-x3-37" value="add for transportation" style="text;html=1;strokeColor=none;fillColor=none;align=center;verticalAlign=middle;whiteSpace=wrap;rounded=0;rotation=0;" vertex="1" parent="1">
          <mxGeometry x="1330" y="249.41000000000003" width="117.34" as="geometry" />
        </mxCell>
        <mxCell id="IZZyQsye6YI3I2g3l-x3-40" value="" style="endArrow=classic;html=1;exitX=1;exitY=1;exitDx=0;exitDy=0;entryX=0.75;entryY=1;entryDx=0;entryDy=0;curved=1;" edge="1" parent="1" source="D_m2Uv7tLHT4tkGTXmzc-131" target="IZZyQsye6YI3I2g3l-x3-4">
          <mxGeometry width="50" height="50" relative="1" as="geometry">
            <mxPoint x="790" y="740" as="sourcePoint" />
            <mxPoint x="840" y="690" as="targetPoint" />
            <Array as="points">
              <mxPoint x="720" y="1320" />
              <mxPoint x="1130" y="1000" />
              <mxPoint x="1280" y="730" />
            </Array>
          </mxGeometry>
        </mxCell>
        <mxCell id="IZZyQsye6YI3I2g3l-x3-41" value="Edit info" style="text;html=1;strokeColor=none;fillColor=none;align=center;verticalAlign=middle;whiteSpace=wrap;rounded=0;" vertex="1" parent="1">
          <mxGeometry x="1300" y="458" width="60" height="10" as="geometry" />
        </mxCell>
        <mxCell id="IZZyQsye6YI3I2g3l-x3-42" value="List of company" style="html=1;dashed=0;whiteSpace=wrap;shape=partialRectangle;right=0;left=0;" vertex="1" parent="1">
          <mxGeometry x="-240" y="989" width="140" height="40" as="geometry" />
        </mxCell>
        <mxCell id="IZZyQsye6YI3I2g3l-x3-43" value="" style="endArrow=classic;html=1;rounded=0;entryX=1;entryY=0.25;entryDx=0;entryDy=0;" edge="1" parent="1" target="IZZyQsye6YI3I2g3l-x3-42">
          <mxGeometry width="50" height="50" relative="1" as="geometry">
            <mxPoint x="100" y="939" as="sourcePoint" />
            <mxPoint x="120" y="1029" as="targetPoint" />
          </mxGeometry>
        </mxCell>
        <mxCell id="IZZyQsye6YI3I2g3l-x3-44" value="Update \ add" style="text;html=1;strokeColor=none;fillColor=none;align=center;verticalAlign=middle;whiteSpace=wrap;rounded=0;" vertex="1" parent="1">
          <mxGeometry x="-50" y="939" width="90" height="20" as="geometry" />
        </mxCell>
        <mxCell id="IZZyQsye6YI3I2g3l-x3-45" value="" style="endArrow=classic;html=1;rounded=0;exitX=0;exitY=0.5;exitDx=0;exitDy=0;entryX=1;entryY=0.25;entryDx=0;entryDy=0;" edge="1" parent="1" source="D_m2Uv7tLHT4tkGTXmzc-64" target="IZZyQsye6YI3I2g3l-x3-18">
          <mxGeometry width="50" height="50" relative="1" as="geometry">
            <mxPoint x="80" y="770" as="sourcePoint" />
            <mxPoint x="130" y="720" as="targetPoint" />
          </mxGeometry>
        </mxCell>
        <mxCell id="IZZyQsye6YI3I2g3l-x3-46" value="Showrooms" style="text;html=1;strokeColor=none;fillColor=none;align=center;verticalAlign=middle;whiteSpace=wrap;rounded=0;" vertex="1" parent="1">
          <mxGeometry x="49" y="607" width="60" height="15" as="geometry" />
        </mxCell>
        <mxCell id="IZZyQsye6YI3I2g3l-x3-47" value="" style="endArrow=classic;html=1;entryX=1;entryY=0.5;entryDx=0;entryDy=0;exitX=0;exitY=0.5;exitDx=0;exitDy=0;curved=1;" edge="1" parent="1" source="D_m2Uv7tLHT4tkGTXmzc-92" target="IZZyQsye6YI3I2g3l-x3-18">
          <mxGeometry width="50" height="50" relative="1" as="geometry">
            <mxPoint x="530" y="650" as="sourcePoint" />
            <mxPoint x="580" y="600" as="targetPoint" />
            <Array as="points">
              <mxPoint x="210" y="700" />
            </Array>
          </mxGeometry>
        </mxCell>
        <mxCell id="IZZyQsye6YI3I2g3l-x3-48" value="" style="endArrow=classic;html=1;exitX=0.75;exitY=1;exitDx=0;exitDy=0;entryX=0.5;entryY=1;entryDx=0;entryDy=0;curved=1;" edge="1" parent="1" source="IZZyQsye6YI3I2g3l-x3-18" target="D_m2Uv7tLHT4tkGTXmzc-92">
          <mxGeometry width="50" height="50" relative="1" as="geometry">
            <mxPoint x="530" y="650" as="sourcePoint" />
            <mxPoint x="580" y="600" as="targetPoint" />
            <Array as="points">
              <mxPoint x="200" y="720" />
            </Array>
          </mxGeometry>
        </mxCell>
        <mxCell id="IZZyQsye6YI3I2g3l-x3-49" value="Location \ city" style="text;html=1;strokeColor=none;fillColor=none;align=center;verticalAlign=middle;whiteSpace=wrap;rounded=0;" vertex="1" parent="1">
          <mxGeometry x="90" y="643" width="79" height="15" as="geometry" />
        </mxCell>
        <mxCell id="IZZyQsye6YI3I2g3l-x3-50" value="alerts" style="text;html=1;strokeColor=none;fillColor=none;align=center;verticalAlign=middle;whiteSpace=wrap;rounded=0;" vertex="1" parent="1">
          <mxGeometry x="124" y="700" width="79" height="15" as="geometry" />
        </mxCell>
        <mxCell id="IZZyQsye6YI3I2g3l-x3-51" value="Vehicle news" style="html=1;dashed=0;whiteSpace=wrap;shape=partialRectangle;right=0;left=0;" vertex="1" parent="1">
          <mxGeometry x="360" y="-80" width="120" height="40" as="geometry" />
        </mxCell>
        <mxCell id="IZZyQsye6YI3I2g3l-x3-52" value="" style="endArrow=classic;html=1;rounded=0;entryX=1;entryY=0;entryDx=0;entryDy=0;exitX=0.75;exitY=1;exitDx=0;exitDy=0;" edge="1" parent="1" source="IZZyQsye6YI3I2g3l-x3-51" target="D_m2Uv7tLHT4tkGTXmzc-101">
          <mxGeometry width="50" height="50" relative="1" as="geometry">
            <mxPoint x="210" y="210" as="sourcePoint" />
            <mxPoint x="260" y="160" as="targetPoint" />
          </mxGeometry>
        </mxCell>
        <mxCell id="IZZyQsye6YI3I2g3l-x3-53" value="" style="endArrow=classic;html=1;rounded=0;entryX=0;entryY=0;entryDx=0;entryDy=0;exitX=0.25;exitY=1;exitDx=0;exitDy=0;" edge="1" parent="1" source="IZZyQsye6YI3I2g3l-x3-51" target="D_m2Uv7tLHT4tkGTXmzc-101">
          <mxGeometry width="50" height="50" relative="1" as="geometry">
            <mxPoint x="460" y="-30" as="sourcePoint" />
            <mxPoint x="488" y="62" as="targetPoint" />
          </mxGeometry>
        </mxCell>
        <mxCell id="IZZyQsye6YI3I2g3l-x3-54" value="news" style="text;html=1;strokeColor=none;fillColor=none;align=center;verticalAlign=middle;whiteSpace=wrap;rounded=0;rotation=0;" vertex="1" parent="1">
          <mxGeometry x="356.92" y="10" width="35.28" height="10" as="geometry" />
        </mxCell>
        <mxCell id="IZZyQsye6YI3I2g3l-x3-55" value="news from brand" style="text;html=1;strokeColor=none;fillColor=none;align=center;verticalAlign=middle;whiteSpace=wrap;rounded=0;rotation=0;" vertex="1" parent="1">
          <mxGeometry x="467.79" y="10" width="100.21" height="10" as="geometry" />
        </mxCell>
        <mxCell id="IZZyQsye6YI3I2g3l-x3-56" value="" style="endArrow=classic;html=1;exitX=0.25;exitY=0;exitDx=0;exitDy=0;entryX=1;entryY=0.5;entryDx=0;entryDy=0;curved=1;" edge="1" parent="1" source="IZZyQsye6YI3I2g3l-x3-2" target="D_m2Uv7tLHT4tkGTXmzc-111">
          <mxGeometry width="50" height="50" relative="1" as="geometry">
            <mxPoint x="1170" y="280" as="sourcePoint" />
            <mxPoint x="1220" y="230" as="targetPoint" />
            <Array as="points">
              <mxPoint x="1170" y="50" />
            </Array>
          </mxGeometry>
        </mxCell>
        <mxCell id="IZZyQsye6YI3I2g3l-x3-57" value="vehicles" style="text;html=1;strokeColor=none;fillColor=none;align=center;verticalAlign=middle;whiteSpace=wrap;rounded=0;rotation=0;" vertex="1" parent="1">
          <mxGeometry x="1010.3199999999999" y="70" width="90" as="geometry" />
        </mxCell>
        <mxCell id="IZZyQsye6YI3I2g3l-x3-58" value="" style="endArrow=classic;html=1;exitX=0;exitY=0;exitDx=0;exitDy=0;entryX=0.5;entryY=0;entryDx=0;entryDy=0;curved=1;" edge="1" parent="1" source="D_m2Uv7tLHT4tkGTXmzc-111" target="IZZyQsye6YI3I2g3l-x3-42">
          <mxGeometry width="50" height="50" relative="1" as="geometry">
            <mxPoint x="280" y="280" as="sourcePoint" />
            <mxPoint x="330" y="230" as="targetPoint" />
            <Array as="points">
              <mxPoint x="410" y="-350" />
              <mxPoint x="-30" y="-270" />
              <mxPoint x="-380" y="12" />
              <mxPoint x="-570" y="500" />
            </Array>
          </mxGeometry>
        </mxCell>
        <mxCell id="IZZyQsye6YI3I2g3l-x3-59" value="" style="endArrow=classic;html=1;curved=1;entryX=0;entryY=0.5;entryDx=0;entryDy=0;exitX=0.75;exitY=0;exitDx=0;exitDy=0;" edge="1" parent="1" source="IZZyQsye6YI3I2g3l-x3-42" target="D_m2Uv7tLHT4tkGTXmzc-111">
          <mxGeometry width="50" height="50" relative="1" as="geometry">
            <mxPoint x="-130" y="950" as="sourcePoint" />
            <mxPoint x="750" y="-10" as="targetPoint" />
            <Array as="points">
              <mxPoint x="-550" y="520" />
              <mxPoint x="-270" y="60" />
              <mxPoint x="310" y="-470" />
            </Array>
          </mxGeometry>
        </mxCell>
        <mxCell id="IZZyQsye6YI3I2g3l-x3-60" value="companies" style="text;html=1;strokeColor=none;fillColor=none;align=center;verticalAlign=middle;whiteSpace=wrap;rounded=0;rotation=45;" vertex="1" parent="1">
          <mxGeometry x="594" y="-11" width="60" height="10" as="geometry" />
        </mxCell>
        <mxCell id="IZZyQsye6YI3I2g3l-x3-62" value="send message" style="text;html=1;strokeColor=none;fillColor=none;align=center;verticalAlign=middle;whiteSpace=wrap;rounded=0;rotation=45;" vertex="1" parent="1">
          <mxGeometry x="649" y="-40" width="60" height="10" as="geometry" />
        </mxCell>
        <mxCell id="IZZyQsye6YI3I2g3l-x3-63" value="" style="endArrow=classic;html=1;exitX=0.25;exitY=0;exitDx=0;exitDy=0;curved=1;entryX=1;entryY=0;entryDx=0;entryDy=0;" edge="1" parent="1" source="IZZyQsye6YI3I2g3l-x3-42" target="D_m2Uv7tLHT4tkGTXmzc-111">
          <mxGeometry width="50" height="50" relative="1" as="geometry">
            <mxPoint x="210" y="400" as="sourcePoint" />
            <mxPoint x="770" y="-110" as="targetPoint" />
            <Array as="points">
              <mxPoint x="-710" y="430" />
              <mxPoint x="-180" y="-320" />
              <mxPoint x="280" y="-360" />
              <mxPoint x="560" y="-240" />
            </Array>
          </mxGeometry>
        </mxCell>
        <mxCell id="IZZyQsye6YI3I2g3l-x3-64" value="reply" style="text;html=1;strokeColor=none;fillColor=none;align=center;verticalAlign=middle;whiteSpace=wrap;rounded=0;rotation=45;" vertex="1" parent="1">
          <mxGeometry x="704" y="-40" width="60" height="18" as="geometry" />
        </mxCell>
      </root>
    </mxGraphModel>
  </diagram>
</mxfile>
